# xmcd CD database file
#
# Track frame offsets:
#	150
#	16831
#	34641
#	53819
#	75669
#	90640
#	102781
#	117131
#	131065
#	150263
#	170819
#	183780
#	198173
#	215480
#	234585
#
# Disc length: 3446 seconds
#
# Revision: 2
# Processed by: cddbd v1.5.2PL0 Copyright (c) Steve Scherf et al.
# Submitted via: CDex 1.51
#
DISCID=b40d740f
DTITLE=Various Artist - STTW-1268
DYEAR=1900
DGENRE=Blues
TTITLE0=Neil Diamond - Beautiful Noise
TTITLE1=Elkie Brookes - Pearl's A Singer
TTITLE2=Rod Stewart - The First Cut Is The Deepest
TTITLE3=Gerry Rafferty - Baker Street
TTITLE4=John Travolta and Olivia Newton John - You're The One That I Want
TTITLE5=Undertones The - Teenage Kicks
TTITLE6=Blondie - Picture This
TTITLE7=Buzzcocks The - Ever Fallen In Love
TTITLE8=Fleetwood Mac - Rhiannon
TTITLE9=Chaka Khan - I'm Every Woman
TTITLE10=Kate Bush - The Man With The Child In His Eyes
TTITLE11=Dr Feelgood - Milk and Alcohol
TTITLE12=Joe Jackson - Is She Really Going Out With Him
TTITLE13=Knack The - My Sharona
TTITLE14=Meatloaf - Bat Out Of Hell
EXTD=
EXTT0=
EXTT1=
EXTT2=
EXTT3=
EXTT4=
EXTT5=
EXTT6=
EXTT7=
EXTT8=
EXTT9=
EXTT10=
EXTT11=
EXTT12=
EXTT13=
EXTT14=
PLAYORDER=
